<svg width="32" height="34" viewBox="0 0 32 34" fill="none" xmlns="http://www.w3.org/2000/svg">
<path d="M22.9609 0C23.3871 5.62276e-05 23.7985 0.156544 24.1171 0.439781C24.4356 0.723018 24.6391 1.11331 24.689 1.53662L24.7011 1.74022V3.48045H28.1816C29.0597 3.48017 29.9054 3.8118 30.5492 4.40885C31.1931 5.0059 31.5875 5.82426 31.6533 6.69986L31.662 6.96089V27.8436C31.6623 28.7216 31.3307 29.5674 30.7336 30.2112C30.1366 30.8551 29.3182 31.2495 28.4426 31.3153L28.1816 31.324H3.81846C2.94038 31.3243 2.09465 30.9927 1.4508 30.3956C0.806952 29.7986 0.41257 28.9802 0.346714 28.1046L0.338013 27.8436V6.96089C0.337735 6.08282 0.669362 5.23708 1.26642 4.59324C1.86347 3.94938 2.68182 3.555 3.55743 3.48915L3.81846 3.48045H7.2989V1.74022C7.2994 1.29668 7.46924 0.870055 7.77372 0.547529C8.07821 0.225003 8.49436 0.0309151 8.93714 0.00492115C9.37993 -0.0210728 9.81593 0.12299 10.1561 0.407673C10.4962 0.692357 10.7148 1.09617 10.7672 1.53662L10.7794 1.74022V3.48045H21.2207V1.74022C21.2207 1.27869 21.404 0.836055 21.7304 0.509699C22.0567 0.183344 22.4994 0 22.9609 0ZM28.1816 15.662H3.81846V27.8436H28.1816V15.662ZM28.1816 6.96089H3.81846V12.1816H28.1816V6.96089Z" fill="white"/>
</svg>
