<svg width="28" height="30" viewBox="0 0 28 30" fill="none" xmlns="http://www.w3.org/2000/svg">
<path d="M19.8466 19.5844C20.6974 19.1273 21.6712 18.8672 22.7083 18.8672H22.7118C22.8173 18.8672 22.8665 18.7406 22.7892 18.6703C21.7106 17.7024 20.4786 16.9206 19.1434 16.357C19.1294 16.35 19.1153 16.3465 19.1013 16.3395C21.2845 14.7539 22.7048 12.177 22.7048 9.26953C22.7048 4.45312 18.8095 0.550781 14.0036 0.550781C9.19774 0.550781 5.30595 4.45312 5.30595 9.26953C5.30595 12.177 6.72626 14.7539 8.91298 16.3395C8.89892 16.3465 8.88485 16.35 8.87079 16.357C7.29931 17.0215 5.88954 17.9742 4.67665 19.1906C3.47076 20.3943 2.51072 21.8213 1.85009 23.3918C1.20009 24.9298 0.8493 26.5775 0.816494 28.2469C0.815556 28.2844 0.822137 28.3217 0.835851 28.3567C0.849564 28.3916 0.870132 28.4234 0.896342 28.4503C0.922553 28.4772 0.953876 28.4985 0.988465 28.5131C1.02305 28.5277 1.06021 28.5352 1.09774 28.5352H3.2036C3.35478 28.5352 3.48134 28.4121 3.48485 28.2609C3.55517 25.5469 4.64149 23.0051 6.56454 21.0785C8.55087 19.0852 11.1946 17.9883 14.0071 17.9883C16.0005 17.9883 17.913 18.5402 19.5618 19.5738C19.6042 19.6004 19.6528 19.6154 19.7028 19.6173C19.7528 19.6191 19.8024 19.6078 19.8466 19.5844ZM14.0071 15.3164C12.397 15.3164 10.8817 14.6871 9.73915 13.5445C9.17698 12.9838 8.73132 12.3174 8.42782 11.5837C8.12433 10.85 7.969 10.0635 7.97079 9.26953C7.97079 7.65586 8.60009 6.13711 9.73915 4.99453C10.8782 3.85195 12.3934 3.22266 14.0071 3.22266C15.6208 3.22266 17.1325 3.85195 18.2751 4.99453C18.8373 5.55524 19.2829 6.22164 19.5864 6.95534C19.8899 7.68904 20.0452 8.47554 20.0434 9.26953C20.0434 10.8832 19.4142 12.402 18.2751 13.5445C17.1325 14.6871 15.6173 15.3164 14.0071 15.3164ZM26.9376 23.6836H23.9845V20.7305C23.9845 20.5758 23.8579 20.4492 23.7032 20.4492H21.7345C21.5798 20.4492 21.4532 20.5758 21.4532 20.7305V23.6836H18.5001C18.3454 23.6836 18.2188 23.8102 18.2188 23.9648V25.9336C18.2188 26.0883 18.3454 26.2148 18.5001 26.2148H21.4532V29.168C21.4532 29.3227 21.5798 29.4492 21.7345 29.4492H23.7032C23.8579 29.4492 23.9845 29.3227 23.9845 29.168V26.2148H26.9376C27.0923 26.2148 27.2188 26.0883 27.2188 25.9336V23.9648C27.2188 23.8102 27.0923 23.6836 26.9376 23.6836Z" fill="white"/>
</svg>
