<svg width="11" height="12" viewBox="0 0 11 12" fill="none" xmlns="http://www.w3.org/2000/svg">
<path d="M9.82367 5.07413L1.9443 0.254522C1.77906 0.153787 1.59005 0.0986982 1.39656 0.0948786C1.20307 0.091059 1.01203 0.138645 0.842945 0.232781C0.673857 0.326916 0.532773 0.46423 0.434094 0.630706C0.335414 0.797183 0.282671 0.986861 0.28125 1.18038V10.8196C0.282671 11.0131 0.335414 11.2028 0.434094 11.3693C0.532773 11.5358 0.673857 11.6731 0.842945 11.7672C1.01203 11.8613 1.20307 11.9089 1.39656 11.9051C1.59005 11.9013 1.77906 11.8462 1.9443 11.7455L9.82367 6.92585C9.98255 6.82914 10.1139 6.69316 10.205 6.53101C10.2961 6.36886 10.344 6.18599 10.344 5.99999C10.344 5.81399 10.2961 5.63112 10.205 5.46897C10.1139 5.30682 9.98255 5.17085 9.82367 5.07413ZM1.59375 10.4215V1.57851L8.82125 5.99999L1.59375 10.4215Z" fill="white"/>
</svg>
