<svg width="36" height="36" viewBox="0 0 36 36" fill="none" xmlns="http://www.w3.org/2000/svg">
<path fill-rule="evenodd" clip-rule="evenodd" d="M24.4452 23.3074C24.5665 26.0555 22.3486 28.3793 19.4918 28.4961C19.2814 28.505 9.02284 28.4843 9.02284 28.4843C6.17982 28.7001 3.6916 26.6572 3.46735 23.9194C3.45046 23.7154 3.45507 12.7082 3.45507 12.7082C3.32912 9.95717 5.54394 7.62742 8.40233 7.5062C8.61582 7.49586 18.8605 7.51507 18.8605 7.51507C21.7174 7.3022 24.2133 9.35995 24.4345 12.111C24.4498 12.3091 24.4452 23.3074 24.4452 23.3074Z" stroke="white" stroke-width="3.11111" stroke-linecap="round" stroke-linejoin="round"/>
<path d="M24.45 14.9697L29.3895 10.9272C30.6135 9.92519 32.4494 10.7982 32.4479 12.3777L32.43 23.4012C32.4285 24.9807 30.591 25.8462 29.37 24.8442L24.45 20.8017" stroke="white" stroke-width="3.11111" stroke-linecap="round" stroke-linejoin="round"/>
</svg>
